<svg height="463pt" viewBox="0 0 463.96674 463" width="463pt" xmlns="http://www.w3.org/2000/svg"><path d="m418.742188 94.816406-6.960938 25.601563h-23.839844c-48.644531-67.691407-135.40625-96.265625-214.753906-70.722657-79.347656 25.542969-133.148438 99.367188-133.167969 182.722657-.03125 15.535156 1.875 31.015625 5.679688 46.078125 2.800781 11.667968 6.738281 23.027344 11.761719 33.921875h-25.441407l-9.597656 19.601562c-1.359375-2.800781-2.640625-5.679687-3.839844-8.5625-46.164062-108.296875-3.898437-234.003906 98.324219-292.410156 102.21875-58.40625 231.976562-30.9921875 301.835938 63.769531zm0 0" fill="#87ced9"/><path d="m232.019531 160.417969c17.675781 0 32 14.328125 32 32v16c0 17.671875-14.324219 32-32 32-17.671875 0-32-14.328125-32-32v-16c0-17.671875 14.328125-32 32-32zm0 0" fill="#fec9a3"/><path d="m208.019531 272.417969h48c17.675781 0 32 14.328125 32 32v120h-112v-120c0-17.671875 14.328125-32 32-32zm0 0" fill="#d6d9db"/><path d="m120.019531 160.417969c17.675781 0 32 14.328125 32 32v16c0 17.671875-14.324219 32-32 32-17.671875 0-32-14.328125-32-32v-16c0-17.671875 14.328125-32 32-32zm0 0" fill="#fec9a3"/><path d="m144.019531 272.417969h-48c-17.671875 0-32 14.328125-32 32v87.734375c8.308594 8.785156 17.296875 16.898437 26.882813 24.265625 3.589844 2.792969 7.304687 5.433593 11.0625 8h74.054687v-120c0-17.671875-14.324219-32-32-32zm0 0" fill="#d6d9db"/><path d="m175.4375 298.601562c-.113281-.582031-.265625-1.152343-.410156-1.726562-.3125-1.308594-.710938-2.59375-1.191406-3.847656-.222657-.578125-.4375-1.167969-.695313-1.730469-.617187-1.359375-1.328125-2.675781-2.128906-3.933594-.207031-.320312-.359375-.664062-.574219-.976562-.996094-1.425781-2.109375-2.761719-3.328125-4-.511719-.542969-1.082031-1.03125-1.601563-1.527344-.789062-.726563-1.617187-1.410156-2.480468-2.050781-.652344-.488282-1.328125-.964844-2.023438-1.398438-.9375-.585937-1.90625-1.121094-2.902344-1.601562-.664062-.328125-1.296874-.703125-1.992187-.984375-10.59375 74.570312-38.199219 118.898437-61.761719 144.074219 2.53125 1.871093 5.050782 3.757812 7.648438 5.535156h74.023437v-120.015625c-.015625-1.953125-.210937-3.898438-.582031-5.816407zm0 0" fill="#cccfd1"/><path d="m344.019531 160.417969c17.675781 0 32 14.328125 32 32v16c0 17.671875-14.324219 32-32 32-17.671875 0-32-14.328125-32-32v-16c0-17.671875 14.328125-32 32-32zm0 0" fill="#fec9a3"/><path d="m368.019531 272.417969h-48c-17.671875 0-32 14.328125-32 32v120h74.042969c3.789062-2.574219 7.535156-5.214844 11.160156-8 9.550782-7.363281 18.511719-15.460938 26.796875-24.222657v-87.777343c0-17.671875-14.324219-32-32-32zm0 0" fill="#d6d9db"/><g fill="#3181bd"><path d="m224.019531 272.417969h16v104h-16zm0 0"/><path d="m112.019531 272.417969h16v80h-16zm0 0"/><path d="m336.019531 272.417969h16v80h-16zm0 0"/></g><path d="m288.019531 304.417969c-.015625-13.003907-7.898437-24.703125-19.941406-29.601563-11.410156 80.328125-42.578125 125.601563-67.152344 149.601563h87.09375zm0 0" fill="#cccfd1"/><path d="m399.4375 298.601562c-.113281-.582031-.265625-1.152343-.410156-1.726562-.3125-1.308594-.710938-2.59375-1.191406-3.847656-.222657-.578125-.4375-1.167969-.695313-1.730469-.617187-1.359375-1.328125-2.675781-2.128906-3.933594-.207031-.320312-.359375-.664062-.574219-.976562-.996094-1.425781-2.109375-2.761719-3.328125-4-.511719-.542969-1.082031-1.03125-1.601563-1.527344-.789062-.726563-1.617187-1.410156-2.480468-2.050781-.652344-.488282-1.328125-.964844-2.023438-1.398438-.9375-.585937-1.90625-1.121094-2.902344-1.601562-.664062-.328125-1.296874-.703125-1.992187-.984375-11.441406 80.320312-42.609375 125.59375-67.183594 149.59375h49.136719c3.789062-2.574219 7.535156-5.214844 11.160156-8 9.550782-7.363281 18.511719-15.460938 26.796875-24.222657v-87.777343c-.015625-1.953125-.210937-3.898438-.582031-5.816407zm0 0" fill="#cccfd1"/><path d="m76.019531 344.417969c57.699219 80.273437 166.910157 103.628906 252.394531 53.980469 85.484376-49.652344 119.308594-156.089844 78.167969-245.980469h25.4375l9.523438-19.601563c41.089843 86.5625 24.761719 189.476563-41.105469 259.0625-65.871094 69.589844-167.734375 91.539063-256.417969 55.257813-19.003906-7.808594-36.871093-18.140625-53.117187-30.71875-17.304688-13.25-32.65625-28.867188-45.601563-46.398438l6.960938-25.601562zm0 0" fill="#4398d1"/></svg>