<?xml version="1.0" encoding="utf-8"?>
<!-- Generator: Adobe Illustrator 25.0.0, SVG Export Plug-In . SVG Version: 6.00 Build 0)  -->
<svg version="1.1" id="Layer_1" xmlns="http://www.w3.org/2000/svg" xmlns:xlink="http://www.w3.org/1999/xlink" x="0px" y="0px"
	 viewBox="0 0 1905 1008" style="enable-background:new 0 0 1905 1008;" xml:space="preserve">
<style type="text/css">
	.st0{fill:#59916D;}
	.st1{opacity:0.75;fill:#2A6C48;enable-background:new    ;}
	.st2{opacity:0.75;fill:url(#top_1_);enable-background:new    ;}
</style>
<g id="middle">
	<path id="bottom" class="st0" d="M1905,974.9c0,0-60.8,19.5-148.9,5.3c-220-35.6-258.1-120.5-505.8-129.1
		c-114.6-4-243.7,63.5-416.2,63.2c-239.7,6.6-374-239.7-834.1-243V32c0,0,60.7-16,147.9-5.4C299.4,45.1,469.3,161,685.3,155.7
		c118.5-2.9,201.5-72.4,416.2-61.9c164.6,8.1,354.3,185.7,592.6,222.5c155,24,210.9,19.7,210.9,19.7V974.9z"/>
	<path id="center" class="st1" d="M1905,974.9c0,0-60.8,19.5-148.9,5.3c-220-35.6-258.1-120.5-505.8-129.1
		c-114.6-4-152.8,48.7-416.2,41.2C543,874.8,460.1,650.6,0,647.3V32c0,0,60.7-16,147.9-5.4C299.4,45.1,469.3,161,685.3,155.7
		c118.5-2.9,156.7-52.7,388.2-46.9c207.1,5.2,352,179.9,620.6,231.5C1848.2,369.9,1905,361,1905,361V974.9z"/>
	
		<radialGradient id="top_1_" cx="952.5" cy="-353.8243" r="1092.8169" fx="1934.9902" fy="124.6753" gradientTransform="matrix(1 0 0 1 0 858)" gradientUnits="userSpaceOnUse">
		<stop  offset="0" style="stop-color:#216D43"/>
		<stop  offset="0.88" style="stop-color:#216D43"/>
	</radialGradient>
	<path id="top" class="st2" d="M1905,974.9c0,0-60.8,19.5-148.9,5.3c-220-35.6-258-124.8-505.8-129.1
		c-154.1-2.6-152.8,36.7-416.2,29.2C543,862.8,460.1,612.6,0,609.3V32c0,0,60.7-16,147.9-5.4C299.4,45.1,469.3,161,685.3,155.7
		c118.5-2.9,125.5-31.9,382.2-28.9c217.1,2.6,335.6,177.7,612.2,245.9C1832,410.3,1905,400,1905,400V974.9z"/>
</g>
</svg>
