<?xml version="1.0" standalone="no"?><svg xmlns="http://www.w3.org/2000/svg" viewBox="0 0 1440 320"><path fill="#5000ca" fill-opacity="0.3" d="M0,160L20,160C40,160,80,160,120,149.3C160,139,200,117,240,112C280,107,320,117,360,144C400,171,440,213,480,213.3C520,213,560,171,600,170.7C640,171,680,213,720,218.7C760,224,800,192,840,192C880,192,920,224,960,234.7C1000,245,1040,235,1080,213.3C1120,192,1160,160,1200,133.3C1240,107,1280,85,1320,90.7C1360,96,1400,128,1420,144L1440,160L1440,320L1420,320C1400,320,1360,320,1320,320C1280,320,1240,320,1200,320C1160,320,1120,320,1080,320C1040,320,1000,320,960,320C920,320,880,320,840,320C800,320,760,320,720,320C680,320,640,320,600,320C560,320,520,320,480,320C440,320,400,320,360,320C320,320,280,320,240,320C200,320,160,320,120,320C80,320,40,320,20,320L0,320Z"></path></svg>